<?xml version="1.0" encoding="UTF-8"?>
<!DOCTYPE svg PUBLIC "-//W3C//DTD SVG 1.1//EN" "http://www.w3.org/Graphics/SVG/1.1/DTD/svg11.dtd">
<svg xmlns="http://www.w3.org/2000/svg" version="1.1" width="128px" height="128px" style="shape-rendering:geometricPrecision; text-rendering:geometricPrecision; image-rendering:optimizeQuality; fill-rule:evenodd; clip-rule:evenodd" xmlns:xlink="http://www.w3.org/1999/xlink">
<g><path style="opacity:0.835" fill="#ff0000" d="M 26.5,-0.5 C 28.8333,-0.5 31.1667,-0.5 33.5,-0.5C 34.5366,1.73752 34.7033,4.07085 34,6.5C 27.5959,10.2346 21.7626,14.7346 16.5,20C 9.27526,21.6908 7.1086,19.1908 10,12.5C 15.2968,7.78547 20.7968,3.45214 26.5,-0.5 Z"/></g>
<g><path style="opacity:0.839" fill="#ff0000" d="M 93.5,-0.5 C 95.8333,-0.5 98.1667,-0.5 100.5,-0.5C 106.203,3.45214 111.703,7.78547 117,12.5C 119.891,19.1908 117.725,21.6908 110.5,20C 105.237,14.7346 99.4041,10.2346 93,6.5C 92.2967,4.07085 92.4634,1.73752 93.5,-0.5 Z"/></g>
<g><path style="opacity:0.871" fill="#ff0000" d="M 105.5,127.5 C 103.5,127.5 101.5,127.5 99.5,127.5C 97.9379,123.608 95.6046,120.275 92.5,117.5C 73.1667,126.833 53.8333,126.833 34.5,117.5C 31.3954,120.275 29.0621,123.608 27.5,127.5C 25.5,127.5 23.5,127.5 21.5,127.5C 19.7516,125.84 19.2516,123.84 20,121.5C 21.9665,118.399 23.7998,115.232 25.5,112C 5.1783,92.5398 -0.3217,69.3731 9,42.5C 20.0571,19.9745 38.2237,7.97454 63.5,6.5C 95.9323,8.78274 115.432,25.7827 122,57.5C 124.199,79.2356 117.366,97.4022 101.5,112C 103.2,115.232 105.034,118.399 107,121.5C 107.748,123.84 107.248,125.84 105.5,127.5 Z M 61.5,15.5 C 84.1986,16.3803 100.365,27.047 110,47.5C 117.91,72.3717 111.41,92.5384 90.5,108C 61.9495,122.154 38.4495,116.321 20,90.5C 7.61225,62.2099 14.1122,39.3766 39.5,22C 46.5964,18.5648 53.9298,16.3981 61.5,15.5 Z"/></g>
<g><path style="opacity:0.821" fill="#ff0000" d="M 60.5,27.5 C 62.5273,27.3379 64.5273,27.5045 66.5,28C 67.1258,28.7504 67.6258,29.5838 68,30.5C 68.3333,41.8333 68.6667,53.1667 69,64.5C 74.9,69.0666 80.0667,74.2333 84.5,80C 82.9117,84.7297 79.9117,85.7297 75.5,83C 69.844,78.344 64.5107,73.344 59.5,68C 58.3623,55.5333 58.1957,43.0333 59,30.5C 59.5133,29.4734 60.0133,28.4734 60.5,27.5 Z"/></g>
</svg>
